<?xml version="1.0" encoding="UTF-8"?>
<svg id="pdainfohud" width="22.222in" height="12.5in" version="1.1" viewBox="0 0 1600 900" xmlns="http://www.w3.org/2000/svg">
 <defs>
  <clipPath id="clipPath28320">
   <path d="m1594 845v-580h-5.1178l-31.331-31.331v-78.22l4.4496-4.4496v-86.999l-42.001-42.001h-198l-30.003 30.003h-115.99l-7.0029-7.0029h-322l-22.542-39.044-331.46 0.04439-18.019 18.019h-179l-20.981 20.981h-214l-48.957 48.957v529.09l30.961 30.961v212l17.996 17.996h387l13.039-13.039h395l11-11h531l14.965-14.965z" display="none" fill="#50c7ff"/>
   <path class="powerclip" d="m5-0.99957h1596v892h-1596zm1589 846v-580h-5.1178l-31.331-31.331v-78.22l4.4496-4.4496v-86.999l-42.001-42.001h-198l-30.003 30.003h-115.99l-7.0029-7.0029h-322l-22.542-39.044-331.46 0.04439-18.019 18.019h-179l-20.981 20.981h-214l-48.957 48.957v529.09l30.961 30.961v212l17.996 17.996h387l13.039-13.039h395l11-11h531l14.965-14.965z" fill="#50c7ff"/>
  </clipPath>
 </defs>
 <g fill="#339ee2" fill-opacity=".6">
  <path d="m821.55 15 17.321 30h-57.656l-13.279-23h-245.25l7-7z"/>
  <path d="m1525.2 15 44.099 44.099v167.79l26.702 26.702 8e-4 -238.59h-70.802"/>
  <path d="m1585.9 836.45v-552.53l-39.29-39.29-17.371 17.371v574.45l56.661 2e-5"/>
  <path d="m50.216 815.28 35.238-35.238v-726.28h-23.561l-42.932 42.932v521.93l31.255 31.255z"/>
 </g>
 <g fill="#50c7ff">
  <path d="m10 79.284 57.284-57.284h-57.284v57.284"/>
  <path d="m1596 854.8v7.96h-80.799l-8.1997 8.1997-103.73-1e-5 16.16-16.16z"/>
  <path d="m1388.2 886 11.969-11.969 107.84 1e-5 8.2671-8.2671h79.692v20.236l-207.77-2e-5"/>
  <path id="exterior" d="m1596 847.03v-585.03l-32.035-32.035v-169l-45.965-45.965h-228l-27.996 27.996h-412.01l-22.514-38.996h-336.48l-18 18h-393l-70 70v533l30.957 30.957 0.04286 212.04 18 18h1318l38.972-38.972z" clip-path="url(#clipPath28320)" style="mix-blend-mode:normal"/>
 </g>
</svg>
